<svg class="MuiSvgIcon-root MuiSvgIcon-fontSizeMedium mui-vubbuv" focusable="false" aria-hidden="true" viewBox="0 0 1990 1050" xmlns="http://www.w3.org/2000/svg"><rect width="1990" height="1050" fill="#009b3a"></rect><polygon points="384.05 530.27 997.34 133.99 1613.53 529.33 998.64 928.95 384.05 530.27" fill="#fedf00"></polygon><ellipse cx="999.31" cy="529.11" rx="259.81" ry="263" fill="#002776"></ellipse><path d="M975.25,425.65c177.69,37.84,280.93,143.05,280.93,143.05-2.74,20.49-9.6,41.67-9.6,41.67C1132.35,501,989.66,471.48,989.66,471.48c-127.08-31-241.82-8.68-241.82-8.68,3.6-14.85,13.89-40.37,13.89-40.37S848.34,406.2,975.25,425.65Z" fill="#fff"></path><polygon points="786.93 471.03 789.44 478.83 797.53 478.83 790.98 483.64 793.49 491.44 786.93 486.62 780.39 491.44 782.89 483.64 776.34 478.83 784.43 478.83 786.93 471.03" fill="#fff"></polygon><polygon points="899.79 530.69 901.97 537.47 909.01 537.47 903.31 541.67 905.49 548.45 899.79 544.26 894.09 548.45 896.26 541.67 890.56 537.47 897.61 537.47 899.79 530.69" fill="#fff"></polygon><polygon points="835.64 570.27 836.97 574.4 841.26 574.4 837.79 576.96 839.12 581.09 835.64 578.53 832.17 581.09 833.5 576.96 830.02 574.4 834.32 574.4 835.64 570.27" fill="#fff"></polygon><polygon points="809.92 580.99 812.7 589.67 821.71 589.67 814.42 595.03 817.21 603.7 809.92 598.34 802.63 603.7 805.41 595.03 798.12 589.67 807.13 589.67 809.92 580.99" fill="#fff"></polygon><polygon points="777.67 607.58 779.73 613.98 786.38 613.98 781 617.94 783.05 624.34 777.67 620.38 772.29 624.34 774.35 617.94 768.97 613.98 775.62 613.98 777.67 607.58" fill="#fff"></polygon><polygon points="864.01 610.08 866.07 616.48 872.72 616.48 867.34 620.44 869.39 626.84 864.01 622.88 858.63 626.84 860.69 620.44 855.31 616.48 861.96 616.48 864.01 610.08" fill="#fff"></polygon><polygon points="856.13 636.47 858.18 642.87 864.83 642.87 859.45 646.83 861.5 653.23 856.13 649.27 850.74 653.23 852.8 646.83 847.42 642.87 854.07 642.87 856.13 636.47" fill="#fff"></polygon><polygon points="894.54 659.09 896.84 666.25 904.28 666.25 898.26 670.67 900.56 677.83 894.54 673.41 888.52 677.83 890.82 670.67 884.81 666.25 892.24 666.25 894.54 659.09" fill="#fff"></polygon><polygon points="998.48 637.91 1000.77 645.07 1008.21 645.07 1002.19 649.49 1004.49 656.65 998.48 652.23 992.46 656.65 994.76 649.49 988.74 645.07 996.18 645.07 998.48 637.91" fill="#fff"></polygon><polygon points="1029 586.17 1031.13 592.8 1038.02 592.8 1032.44 596.9 1034.57 603.53 1029 599.43 1023.43 603.53 1025.56 596.9 1019.99 592.8 1026.88 592.8 1029 586.17" fill="#fff"></polygon><polygon points="998.48 562.21 1000.6 568.84 1007.49 568.84 1001.92 572.94 1004.04 579.57 998.48 575.47 992.9 579.57 995.03 572.94 989.46 568.84 996.35 568.84 998.48 562.21" fill="#fff"></polygon><polygon points="972.24 586.33 974.12 592.2 980.22 592.2 975.29 595.83 977.17 601.7 972.24 598.07 967.3 601.7 969.19 595.83 964.25 592.2 970.35 592.2 972.24 586.33" fill="#fff"></polygon><polygon points="985.27 607.41 986.67 611.76 991.2 611.76 987.53 614.46 988.93 618.82 985.27 616.12 981.61 618.82 983.01 614.46 979.34 611.76 983.87 611.76 985.27 607.41" fill="#fff"></polygon><polygon points="1069.38 510.61 1070.78 514.97 1075.31 514.97 1071.64 517.66 1073.04 522.02 1069.38 519.32 1065.71 522.02 1067.11 517.66 1063.45 514.97 1067.98 514.97 1069.38 510.61" fill="#fff"></polygon><polygon points="1079.33 435.95 1081.92 444.03 1090.3 444.03 1083.52 449.01 1086.11 457.09 1079.33 452.1 1072.54 457.09 1075.13 449.01 1068.35 444.03 1076.73 444.03 1079.33 435.95" fill="#fff"></polygon><polygon points="1180.51 610.61 1183.1 618.68 1191.49 618.68 1184.71 623.67 1187.3 631.74 1180.51 626.75 1173.73 631.74 1176.32 623.67 1169.54 618.68 1177.92 618.68 1180.51 610.61" fill="#fff"></polygon><polygon points="1175.02 656.1 1177.19 662.84 1184.2 662.84 1178.53 667.01 1180.69 673.76 1175.02 669.59 1169.36 673.76 1171.52 667.01 1165.85 662.84 1172.86 662.84 1175.02 656.1" fill="#fff"></polygon><polygon points="1191.15 635.96 1193.31 642.7 1200.32 642.7 1194.65 646.87 1196.82 653.62 1191.15 649.45 1185.48 653.62 1187.64 646.87 1181.97 642.7 1188.98 642.7 1191.15 635.96" fill="#fff"></polygon><polygon points="1216.53 616.16 1218.18 621.32 1223.54 621.32 1219.21 624.5 1220.86 629.66 1216.53 626.47 1212.2 629.66 1213.85 624.5 1209.52 621.32 1214.87 621.32 1216.53 616.16" fill="#fff"></polygon><polygon points="1154.44 672.07 1156.1 677.22 1161.45 677.22 1157.12 680.41 1158.78 685.56 1154.44 682.38 1150.11 685.56 1151.77 680.41 1147.43 677.22 1152.79 677.22 1154.44 672.07" fill="#fff"></polygon><polygon points="1128.72 691.56 1130.62 697.47 1136.76 697.47 1131.79 701.13 1133.69 707.04 1128.72 703.38 1123.75 707.04 1125.65 701.13 1120.68 697.47 1126.82 697.47 1128.72 691.56" fill="#fff"></polygon><polygon points="1127 667.19 1128.58 672.09 1133.67 672.09 1129.55 675.12 1131.12 680.02 1127 676.99 1122.88 680.02 1124.46 675.12 1120.34 672.09 1125.43 672.09 1127 667.19" fill="#fff"></polygon><polygon points="1098.88 676.56 1100.45 681.47 1105.54 681.47 1101.42 684.5 1103 689.4 1098.88 686.37 1094.76 689.4 1096.33 684.5 1092.21 681.47 1097.3 681.47 1098.88 676.56" fill="#fff"></polygon><polygon points="1056 669.62 1057.57 674.52 1062.67 674.52 1058.55 677.55 1060.12 682.45 1056 679.42 1051.88 682.45 1053.45 677.55 1049.33 674.52 1054.42 674.52 1056 669.62" fill="#fff"></polygon><polygon points="1128.58 720.36 1130.15 725.26 1135.25 725.26 1131.13 728.29 1132.7 733.19 1128.58 730.16 1124.46 733.19 1126.03 728.29 1121.91 725.26 1127.01 725.26 1128.58 720.36" fill="#fff"></polygon><polygon points="1076.79 698.48 1078.7 704.44 1084.89 704.44 1079.88 708.13 1081.8 714.09 1076.79 710.41 1071.78 714.09 1073.69 708.13 1068.68 704.44 1074.87 704.44 1076.79 698.48" fill="#fff"></polygon><polygon points="999.26 731.47 1000.16 734.25 1003.04 734.25 1000.71 735.97 1001.6 738.75 999.26 737.03 996.93 738.75 997.82 735.97 995.49 734.25 998.37 734.25 999.26 731.47" fill="#fff"></polygon><path d="M784.78,437.75c1.44,7.51-2.88,12.11-9.07,13-6.41,1-12-2.71-13.61-9.26-1.69-6.86,2.23-12.24,9.06-13.23C778.14,427.27,783.54,431.29,784.78,437.75Zm-19.26,3.14c1.11,4.63,4.91,8.3,9.87,7.57s7-5.19,6-10.14c-.87-4.33-4.42-8.52-9.89-7.72S764.39,436.14,765.52,440.89Z" fill="#009b3a"></path><path d="M798.38,425.62a35.73,35.73,0,0,1,6.26-1c3.53-.3,5.89.07,7.65,1.19a5.54,5.54,0,0,1,2.55,4c.38,2.89-1.45,5-4,5.94v.1c2,.43,3.38,1.92,4.27,4.15a35.63,35.63,0,0,0,2.7,5.89l-3.27.23a29.45,29.45,0,0,1-2.37-5.11c-1.15-3-2.66-4-5.59-3.85-1,.09-2,.17-3,.27q.75,4.74,1.49,9.48l-3.15.3Zm4.87,9.65,3.3-.29c3.46-.3,5.42-2.11,5.07-4.62-.38-2.83-2.94-3.89-6.42-3.62a15.24,15.24,0,0,0-3.21.54Z" fill="#009b3a"></path><path d="M830.16,423.4a50.58,50.58,0,0,1,7-.71c4.75-.13,8.2.76,10.55,2.53a10,10,0,0,1,4,7.87,10.52,10.52,0,0,1-3,8.58c-2.16,2.08-5.86,3.24-10.61,3.4-2.25.07-4.15,0-5.76-.06Q831.24,434.21,830.16,423.4Zm5.12,19.31a23.55,23.55,0,0,0,3.23.05c6.77-.19,10.23-3.6,9.85-9.55-.29-5.18-3.9-8.47-10.88-8.27a20.09,20.09,0,0,0-3.83.42Q834.48,434,835.28,442.71Z" fill="#009b3a"></path><path d="M880,434.85c-3.23-.14-6.47-.26-9.7-.35.06,2.64.11,5.28.17,7.93,3.55.09,7.09.23,10.64.39v2.38q-6.87-.31-13.74-.47l-.63-22c4.61.1,9.2.26,13.8.47v2.38q-5.22-.24-10.44-.39c0,2.32.1,4.64.15,6.95,3.25.09,6.49.21,9.74.35C880,433.29,880,434.07,880,434.85Z" fill="#009b3a"></path><path d="M917.29,438.39c0-3.07.08-6.75.32-9.47h-.12c-1,2.47-2.28,5.07-3.73,8q-2.53,5.07-5,10.17l-2.38-.22q-1.7-5.4-3.48-10.78c-1-3.19-1.94-6.1-2.55-8.76h-.08c-.18,2.72-.49,6.38-.84,9.65-.34,3.11-.67,6.23-1,9.34l-3-.22q1.17-10.91,2.42-21.8l4.19.33q2,5.49,3.82,11a78.62,78.62,0,0,1,2.1,7.6h.11a66.06,66.06,0,0,1,3-7.12c1.68-3.38,3.41-6.74,5.16-10.11l4.18.47q-.08,11-.19,22l-3.06-.35Z" fill="#009b3a"></path><path d="M968.36,445.72c-3.17-.64-6.34-1.26-9.51-1.84-.41,2.59-.83,5.18-1.24,7.77q5.22,1,10.43,2c-.14.78-.28,1.55-.43,2.33q-6.72-1.38-13.47-2.59l3.3-21.59c4.51.81,9,1.67,13.53,2.59l-.42,2.32q-5.12-1-10.25-2l-1.08,6.82q4.78.89,9.55,1.85C968.63,444.19,968.5,445,968.36,445.72Z" fill="#009b3a"></path><path d="M1005.52,442.81a41.18,41.18,0,0,1,6.21,1.25c3.14.87,5.25,2.16,6.38,3.7a5.48,5.48,0,0,1,.88,5,6,6,0,0,1-3.14,3.94c-2.07,1-4.94,1.06-8,.22a13,13,0,0,1-2.44-.87q-1.11,4.21-2.21,8.45l-3-.82Zm.52,11a11.8,11.8,0,0,0,2.51.93c3.74,1,6.46.12,7.28-2.78s-1.12-4.77-4.61-5.74a15.72,15.72,0,0,0-3-.61Q1007.12,449.74,1006,453.83Z" fill="#009b3a"></path><path d="M1035.7,451.75a37.64,37.64,0,0,1,6.14,1.56c3.34,1.12,5.31,2.39,6.4,4.07a5.05,5.05,0,0,1,.49,4.56c-1,2.71-3.57,3.81-6.31,3.69l0,.09c1.63,1.18,2.19,3,2,5.35a33.12,33.12,0,0,0-.23,6.27l-3.07-1.08a26.52,26.52,0,0,1,.17-5.46c.3-3.08-.59-4.58-3.33-5.61l-2.87-1c-1,3-2,6-3,9l-3-1Zm0,10.46,3.13,1c3.27,1.1,5.87.27,6.7-2.08.93-2.65-.91-4.6-4.19-5.74a15.37,15.37,0,0,0-3.15-.78Z" fill="#009b3a"></path><path d="M1081.68,480.08c-3.07,6.85-9.38,8.47-15.13,6.14-6-2.4-8.58-8.16-6.2-14.32,2.49-6.45,8.86-8.89,15.21-6.32S1084.33,474.18,1081.68,480.08Zm-18.09-7c-1.71,4.34-.6,9.23,4,11.09s8.9-.77,10.89-5.3c1.74-4,1.13-9.16-4-11.23S1065.35,468.64,1063.59,473.08Z" fill="#009b3a"></path><path d="M1108.1,503.51a26.68,26.68,0,0,1-7.3-2.25c-3.34-1.61-5.71-3.66-7-6.5a10.44,10.44,0,0,1,.39-8.77c2.82-5.85,9.64-8,17.4-4.26a17.43,17.43,0,0,1,5.25,3.7l-1.79,1.68a14.47,14.47,0,0,0-4.61-3.31c-5.6-2.71-10.72-1.42-13.09,3.51s-.43,9.48,4.71,12a12,12,0,0,0,4.06,1.34c1-1.93,2-3.85,3-5.78l-4.55-2.22,1-2q3.72,1.8,7.41,3.64Z" fill="#009b3a"></path><path d="M1132.33,492.88a39.26,39.26,0,0,1,5.81,2.63c3.1,1.7,4.8,3.3,5.54,5.13a4.86,4.86,0,0,1-.43,4.53c-1.51,2.47-4.33,3.06-7,2.44a.35.35,0,0,0,0,.08c1.38,1.44,1.57,3.34.9,5.57a33.29,33.29,0,0,0-1.5,6.06l-2.84-1.62a25.72,25.72,0,0,1,1.27-5.27c.92-2.94.34-4.57-2.17-6.07l-2.67-1.45q-2.39,4.09-4.76,8.18l-2.79-1.5Q1127,502.25,1132.33,492.88Zm-2.1,10.18c1,.52,1.94,1.05,2.91,1.58,3,1.67,5.8,1.33,7.1-.8,1.47-2.41,0-4.64-3-6.35a15.57,15.57,0,0,0-3-1.33Z" fill="#009b3a"></path><path d="M1164.75,525q-4.11-2.61-8.26-5.17l-4.39,6.57q4.55,2.79,9.05,5.68l-1.37,1.94q-5.8-3.72-11.7-7.3l12.06-18.28q5.92,3.58,11.76,7.32l-1.36,1.95q-4.43-2.83-8.89-5.58l-3.85,5.76q4.15,2.57,8.29,5.19Z" fill="#009b3a"></path><path d="M1174.05,539.27a12.3,12.3,0,0,0,3.85,4.38c2.68,1.87,5.18,1.76,6.55,0s.9-3.32-1.19-6.16c-2.58-3.35-3.59-6.25-1.74-8.74,2-2.75,6.32-2.93,10.42-.06a12.8,12.8,0,0,1,4,4.12l-2.18,1.3a10.81,10.81,0,0,0-3.33-3.63c-2.86-2-5.05-1.32-6-.12-1.24,1.64-.57,3.31,1.57,6.23,2.62,3.59,3.24,6.26,1.24,8.78s-6.22,3.3-11,0a13.82,13.82,0,0,1-4.34-4.66Z" fill="#009b3a"></path><path d="M1197.74,556.27a12.2,12.2,0,0,0,3.62,4.58c2.58,2,5.09,2,6.57.37s1.1-3.26-.83-6.21c-2.41-3.48-3.26-6.44-1.26-8.81,2.2-2.62,6.51-2.58,10.47.51a12.63,12.63,0,0,1,3.76,4.33l-2.26,1.17a10.9,10.9,0,0,0-3.13-3.8c-2.77-2.15-5-1.59-6-.44-1.34,1.56-.76,3.27,1.22,6.3,2.43,3.72,2.91,6.42.74,8.83s-6.43,2.95-11-.6a13.81,13.81,0,0,1-4.08-4.9Z" fill="#009b3a"></path><path d="M1242.54,583.46c-5.52,5.27-12.24,4.57-17,.43-4.9-4.29-5.31-10.51-.72-15.38,4.8-5.1,11.88-5.17,17.09-.59S1247.29,578.92,1242.54,583.46Zm-15-12.74c-3.27,3.41-4,8.31-.21,11.63s8.93,2.38,12.53-1.13c3.16-3.06,4.48-8.08.31-11.75S1230.91,567.21,1227.56,570.72Z" fill="#009b3a"></path></svg>
